<svg width="165" height="77" viewBox="0 0 165 77" fill="none" xmlns="http://www.w3.org/2000/svg">
<rect y="19" width="165" height="40" rx="20" fill="#AAB9DE"/>
<rect x="21" width="123" height="30" rx="15" fill="#AAB9DE"/>
<rect x="44" y="47" width="77" height="30" rx="15" fill="#AAB9DE"/>
<path fill-rule="evenodd" clip-rule="evenodd" d="M50.343 27.3364L38.7463 50.2281H27.8539L32.707 40.7408H32.4893C28.4855 45.989 22.5117 49.444 14 50.2281V40.8721C14 40.8721 19.4451 40.5474 22.6462 37.149H14V27.3366H23.7174V35.4071L23.9355 35.4062L27.9064 27.3366H35.2554V35.356L35.4735 35.3556L39.5933 27.3364H50.343Z" fill="#330812"/>
<path d="M113.58 47.7013H116.709V29.562H113.58V47.7013Z" fill="#330812"/>
<path fill-rule="evenodd" clip-rule="evenodd" d="M96.3267 47.5167C97.0069 47.8023 97.6985 47.945 98.4017 47.945C99.5634 47.945 100.603 47.6595 101.52 47.0884C102.437 46.5174 103.148 45.7301 103.652 44.727C104.156 43.716 104.409 42.57 104.409 41.2889C104.409 40.0078 104.149 38.8619 103.629 37.8509C103.109 36.84 102.387 36.0567 101.462 35.501C100.538 34.9377 99.4869 34.6599 98.3099 34.6676C97.561 34.6676 96.8426 34.8142 96.1548 35.1075C95.4669 35.4007 94.8938 35.8174 94.4351 36.3576C94.3998 36.3988 94.3654 36.4403 94.332 36.4823V29.5742H91.1909V47.702H94.3091L94.3028 46.0085C94.3835 46.1083 94.4697 46.2058 94.5613 46.3012C95.0581 46.8184 95.6466 47.2235 96.3267 47.5167ZM99.5365 44.588C99.0245 44.9044 98.4398 45.0627 97.7826 45.0627C97.133 45.0627 96.5369 44.9006 95.9942 44.5765C95.4516 44.2446 95.0198 43.7932 94.6988 43.2221C94.3855 42.651 94.2289 42.0028 94.2289 41.2774C94.2212 40.5519 94.3741 39.9037 94.6874 39.3326C95.0084 38.7538 95.4402 38.3062 95.9828 37.9898C96.5254 37.6657 97.1253 37.5075 97.7826 37.5152C98.4398 37.5075 99.0245 37.6618 99.5365 37.9783C100.056 38.2869 100.454 38.7307 100.729 39.3095C101.012 39.8805 101.153 40.5366 101.153 41.2774C101.153 42.0182 101.012 42.6742 100.729 43.2453C100.454 43.8163 100.056 44.2639 99.5365 44.588Z" fill="#330812"/>
<path d="M54.877 30.6621H58.4536L61.6532 42.461L65.0568 30.6621H68.0373L71.7287 42.2242L74.8009 30.6621H78.0796L73.2419 47.7017H70.1581L66.4046 36.4065L62.9589 47.7017H59.8407L54.877 30.6621Z" fill="#330812"/>
<path fill-rule="evenodd" clip-rule="evenodd" d="M83.3618 48.0025C82.116 48.0101 80.9926 47.7323 79.9914 47.169C78.9979 46.5979 78.2145 45.8069 77.6413 44.796C77.0758 43.785 76.793 42.6313 76.793 41.3348C76.793 40.077 77.0835 38.9386 77.6643 37.9199C78.245 36.9013 79.0323 36.1064 80.0257 35.5353C81.0193 34.9643 82.1274 34.6787 83.3503 34.6787C84.7259 34.6787 85.9296 34.9874 86.9614 35.6048C88.0007 36.2222 88.7765 37.0981 89.2885 38.2325C89.8082 39.3592 89.9954 40.6518 89.8502 42.1103H80.0306C80.0581 42.6914 80.2017 43.2202 80.4614 43.6962C80.7518 44.221 81.1569 44.6301 81.6765 44.9233C82.1962 45.2165 82.7771 45.3631 83.4191 45.3631C83.9082 45.3555 84.3629 45.2706 84.7832 45.1086C85.2036 44.9388 85.5589 44.7111 85.8494 44.4256C86.1474 44.14 86.3575 43.8159 86.4798 43.4532H89.7586C89.5598 44.3407 89.1624 45.1317 88.5663 45.8262C87.9701 46.513 87.2211 47.0493 86.3194 47.4353C85.4175 47.8211 84.4316 48.0101 83.3618 48.0025ZM80.4729 38.927C80.2897 39.2495 80.1629 39.5968 80.0922 39.9689H86.6013C86.5541 39.4988 86.4104 39.0705 86.1703 38.6839C85.8953 38.2286 85.5208 37.8775 85.0469 37.6306C84.573 37.3759 84.0381 37.2485 83.442 37.2485C82.8077 37.2485 82.2307 37.3952 81.711 37.6884C81.1913 37.9817 80.7785 38.3946 80.4729 38.927Z" fill="#330812"/>
<path d="M106.713 34.9452C106.713 33.9111 106.946 32.9927 107.412 32.1901C107.878 31.3798 108.532 30.7509 109.373 30.3033C110.221 29.848 111.211 29.6126 112.342 29.5972V32.4101C111.814 32.4178 111.363 32.5297 110.989 32.7458C110.622 32.9541 110.339 33.259 110.141 33.6603C109.958 34.0297 109.859 34.458 109.844 34.9452H112.273V37.6192H109.843V47.7018H106.713V37.6192H104.695V34.9452H106.713Z" fill="#330812"/>
<path fill-rule="evenodd" clip-rule="evenodd" d="M124.665 47.9792C123.389 47.9792 122.247 47.6974 121.238 47.1341C120.237 46.5631 119.449 45.7759 118.876 44.7727C118.311 43.7617 118.028 42.6158 118.028 41.3346C118.028 40.0459 118.311 38.896 118.876 37.8851C119.449 36.8664 120.237 36.0754 121.238 35.512C122.247 34.9487 123.389 34.667 124.665 34.667C125.949 34.667 127.096 34.9487 128.105 35.512C129.121 36.0754 129.912 36.8625 130.477 37.8735C131.043 38.8844 131.33 40.0382 131.337 41.3346C131.33 42.6158 131.043 43.7617 130.477 44.7727C129.92 45.7759 129.132 46.5631 128.116 47.1341C127.1 47.6974 125.949 47.9792 124.665 47.9792ZM124.665 45.0737C125.338 45.0737 125.934 44.9193 126.454 44.6106C126.973 44.2942 127.375 43.8543 127.657 43.291C127.94 42.7199 128.082 42.0678 128.082 41.3346C128.082 40.5938 127.94 39.9378 127.657 39.3668C127.375 38.7957 126.973 38.3558 126.454 38.0471C125.934 37.7307 125.338 37.5725 124.665 37.5725C124 37.5725 123.408 37.7307 122.889 38.0471C122.376 38.3558 121.979 38.7957 121.696 39.3668C121.413 39.9378 121.276 40.5938 121.284 41.3346C121.284 42.0678 121.425 42.7199 121.708 43.291C121.998 43.8543 122.396 44.2942 122.9 44.6106C123.412 44.9193 124 45.0737 124.665 45.0737Z" fill="#330812"/>
<path d="M134.719 34.9448H131.234L135.005 47.7014H138.055L140.535 39.5538L143.214 47.7014H146.217L150 34.9448H146.848L144.702 42.885L142.331 34.9448H139.281L136.921 43.0599L134.719 34.9448Z" fill="#330812"/>
<path d="M30.4087 20V8.54688H34.1197C35.5259 8.54688 36.4426 8.60417 36.8697 8.71875C37.5259 8.89062 38.0754 9.26562 38.5181 9.84375C38.9608 10.4167 39.1822 11.1589 39.1822 12.0703C39.1822 12.7734 39.0546 13.3646 38.7994 13.8438C38.5442 14.3229 38.2186 14.7005 37.8228 14.9766C37.4322 15.2474 37.0337 15.4271 36.6275 15.5156C36.0754 15.625 35.2759 15.6797 34.2291 15.6797H32.7212V20H30.4087ZM32.7212 10.4844V13.7344H33.9869C34.8983 13.7344 35.5077 13.6745 35.815 13.5547C36.1223 13.4349 36.3619 13.2474 36.5337 12.9922C36.7108 12.737 36.7994 12.4401 36.7994 12.1016C36.7994 11.6849 36.677 11.3411 36.4322 11.0703C36.1874 10.7995 35.8775 10.6302 35.5025 10.5625C35.2265 10.5104 34.6718 10.4844 33.8384 10.4844H32.7212ZM40.2919 14.3438C40.2919 13.1771 40.4664 12.1979 40.8153 11.4062C41.0757 10.8229 41.4299 10.2995 41.8778 9.83594C42.3309 9.3724 42.8257 9.02865 43.3622 8.80469C44.0757 8.5026 44.8986 8.35156 45.8309 8.35156C47.5184 8.35156 48.8674 8.875 49.8778 9.92188C50.8934 10.9688 51.4012 12.4245 51.4012 14.2891C51.4012 16.138 50.8986 17.5859 49.8934 18.6328C48.8882 19.6745 47.5445 20.1953 45.8622 20.1953C44.1591 20.1953 42.8049 19.6771 41.7997 18.6406C40.7945 17.599 40.2919 16.1667 40.2919 14.3438ZM42.6747 14.2656C42.6747 15.5625 42.9742 16.5469 43.5731 17.2188C44.1721 17.8854 44.9325 18.2188 45.8544 18.2188C46.7762 18.2188 47.5315 17.888 48.12 17.2266C48.7137 16.5599 49.0106 15.5625 49.0106 14.2344C49.0106 12.9219 48.7216 11.9427 48.1434 11.2969C47.5705 10.651 46.8075 10.3281 45.8544 10.3281C44.9012 10.3281 44.133 10.6562 43.5497 11.3125C42.9664 11.9635 42.6747 12.9479 42.6747 14.2656ZM54.5187 20L51.7844 8.54688H54.1516L55.8781 16.4141L57.9719 8.54688H60.7219L62.7297 16.5469L64.4875 8.54688H66.8156L64.0344 20H61.5812L59.3 11.4375L57.0266 20H54.5187ZM67.6831 20V8.54688H76.1753V10.4844H69.9956V13.0234H75.7456V14.9531H69.9956V18.0703H76.3941V20H67.6831ZM78.0428 20V8.54688H82.91C84.134 8.54688 85.022 8.65104 85.5741 8.85938C86.1314 9.0625 86.5767 9.42708 86.91 9.95312C87.2433 10.4792 87.41 11.0807 87.41 11.7578C87.41 12.6172 87.1574 13.3281 86.6522 13.8906C86.147 14.4479 85.3918 14.7995 84.3866 14.9453C84.8866 15.237 85.298 15.5573 85.6209 15.9062C85.9491 16.2552 86.3892 16.875 86.9412 17.7656L88.3397 20H85.5741L83.9022 17.5078C83.3084 16.6172 82.9022 16.0573 82.6834 15.8281C82.4647 15.5938 82.2329 15.4349 81.9881 15.3516C81.7433 15.263 81.3553 15.2188 80.8241 15.2188H80.3553V20H78.0428ZM80.3553 13.3906H82.0662C83.1756 13.3906 83.8683 13.3438 84.1444 13.25C84.4204 13.1562 84.6366 12.9948 84.7928 12.7656C84.9491 12.5365 85.0272 12.25 85.0272 11.9062C85.0272 11.5208 84.923 11.2109 84.7147 10.9766C84.5116 10.737 84.2225 10.5859 83.8475 10.5234C83.66 10.4974 83.0975 10.4844 82.16 10.4844H80.3553V13.3906ZM89.2775 20V8.54688H97.7697V10.4844H91.59V13.0234H97.34V14.9531H91.59V18.0703H97.9884V20H89.2775ZM99.6216 8.54688H103.848C104.801 8.54688 105.528 8.61979 106.028 8.76562C106.7 8.96354 107.275 9.3151 107.754 9.82031C108.234 10.3255 108.598 10.9453 108.848 11.6797C109.098 12.4089 109.223 13.3099 109.223 14.3828C109.223 15.3255 109.106 16.138 108.872 16.8203C108.585 17.6536 108.176 18.3281 107.645 18.8438C107.244 19.2344 106.702 19.5391 106.02 19.7578C105.51 19.9193 104.827 20 103.973 20H99.6216V8.54688ZM101.934 10.4844V18.0703H103.661C104.306 18.0703 104.773 18.0339 105.059 17.9609C105.434 17.8672 105.744 17.7083 105.989 17.4844C106.239 17.2604 106.442 16.8932 106.598 16.3828C106.754 15.8672 106.833 15.1667 106.833 14.2812C106.833 13.3958 106.754 12.7161 106.598 12.2422C106.442 11.7682 106.223 11.3984 105.942 11.1328C105.661 10.8672 105.304 10.6875 104.872 10.5938C104.549 10.5208 103.916 10.4844 102.973 10.4844H101.934ZM115.013 8.54688H119.591C120.497 8.54688 121.172 8.58594 121.614 8.66406C122.062 8.73698 122.461 8.89323 122.81 9.13281C123.164 9.3724 123.458 9.69271 123.693 10.0938C123.927 10.4896 124.044 10.9349 124.044 11.4297C124.044 11.9661 123.898 12.4583 123.607 12.9062C123.32 13.3542 122.929 13.6901 122.435 13.9141C123.133 14.1172 123.669 14.4635 124.044 14.9531C124.419 15.4427 124.607 16.0182 124.607 16.6797C124.607 17.2005 124.484 17.7083 124.239 18.2031C124 18.6927 123.669 19.0859 123.247 19.3828C122.831 19.6745 122.315 19.8542 121.7 19.9219C121.315 19.9635 120.385 19.9896 118.911 20H115.013V8.54688ZM117.325 10.4531V13.1016H118.841C119.742 13.1016 120.302 13.0885 120.521 13.0625C120.916 13.0156 121.226 12.8802 121.45 12.6562C121.679 12.4271 121.794 12.1276 121.794 11.7578C121.794 11.4036 121.695 11.1172 121.497 10.8984C121.304 10.6745 121.015 10.5391 120.63 10.4922C120.401 10.4661 119.742 10.4531 118.653 10.4531H117.325ZM117.325 15.0078V18.0703H119.466C120.299 18.0703 120.828 18.0469 121.052 18C121.396 17.9375 121.674 17.7865 121.888 17.5469C122.107 17.3021 122.216 16.9766 122.216 16.5703C122.216 16.2266 122.133 15.9349 121.966 15.6953C121.799 15.4557 121.557 15.2812 121.239 15.1719C120.927 15.0625 120.245 15.0078 119.193 15.0078H117.325ZM129.255 20V15.1797L125.06 8.54688H127.771L130.466 13.0781L133.107 8.54688H135.771L131.56 15.1953V20H129.255Z" fill="#330812"/>
<path d="M63.4094 68.6016L62.0812 70.2969C61.4302 69.9792 60.8052 69.5417 60.2062 68.9844C59.7427 69.401 59.2505 69.7083 58.7297 69.9062C58.2089 70.1042 57.5891 70.2031 56.8703 70.2031C55.4432 70.2031 54.3703 69.8021 53.6516 69C53.0943 68.3802 52.8156 67.6667 52.8156 66.8594C52.8156 66.125 53.0344 65.4661 53.4719 64.8828C53.9094 64.2943 54.563 63.7839 55.4328 63.3516C55.0422 62.888 54.7479 62.4479 54.55 62.0312C54.3521 61.6094 54.2531 61.2109 54.2531 60.8359C54.2531 60.1432 54.5292 59.5573 55.0812 59.0781C55.6385 58.5938 56.4302 58.3516 57.4562 58.3516C58.4458 58.3516 59.2193 58.6042 59.7766 59.1094C60.3339 59.6146 60.6125 60.2318 60.6125 60.9609C60.6125 61.4245 60.4745 61.8646 60.1984 62.2812C59.9224 62.6979 59.3651 63.1693 58.5266 63.6953L60.1203 65.7969C60.3078 65.4635 60.4693 65.0286 60.6047 64.4922L62.5891 64.9453C62.3911 65.6484 62.2193 66.1641 62.0734 66.4922C61.9276 66.8151 61.7714 67.0859 61.6047 67.3047C61.8495 67.5339 62.1646 67.7865 62.55 68.0625C62.9406 68.3333 63.2271 68.513 63.4094 68.6016ZM57.4328 62.375L58.0266 61.9219C58.4641 61.5833 58.6828 61.2474 58.6828 60.9141C58.6828 60.6328 58.576 60.3932 58.3625 60.1953C58.1542 59.9974 57.8703 59.8984 57.5109 59.8984C57.162 59.8984 56.8885 59.987 56.6906 60.1641C56.4927 60.3359 56.3937 60.5365 56.3937 60.7656C56.3937 61.0365 56.5604 61.3646 56.8937 61.75L57.4328 62.375ZM56.5734 64.7578C56.0682 65.013 55.6906 65.3203 55.4406 65.6797C55.1906 66.0391 55.0656 66.4062 55.0656 66.7812C55.0656 67.2552 55.2193 67.6432 55.5266 67.9453C55.8391 68.2422 56.2557 68.3906 56.7766 68.3906C57.1203 68.3906 57.451 68.3229 57.7687 68.1875C58.0865 68.0521 58.4328 67.8281 58.8078 67.5156L56.5734 64.7578ZM73.9803 65.7891V63.8594H78.9647V68.4219C78.4803 68.8906 77.7772 69.3047 76.8553 69.6641C75.9386 70.0182 75.009 70.1953 74.0662 70.1953C72.8683 70.1953 71.8241 69.9453 70.9334 69.4453C70.0428 68.9401 69.3735 68.2214 68.9256 67.2891C68.4777 66.3516 68.2537 65.3333 68.2537 64.2344C68.2537 63.0417 68.5037 61.9818 69.0037 61.0547C69.5037 60.1276 70.2355 59.4167 71.1991 58.9219C71.9334 58.5417 72.8475 58.3516 73.9412 58.3516C75.3631 58.3516 76.4725 58.651 77.2694 59.25C78.0715 59.8438 78.5871 60.6667 78.8162 61.7188L76.5194 62.1484C76.3579 61.5859 76.0532 61.1432 75.6053 60.8203C75.1626 60.4922 74.6079 60.3281 73.9412 60.3281C72.9308 60.3281 72.1261 60.6484 71.5272 61.2891C70.9334 61.9297 70.6366 62.8802 70.6366 64.1406C70.6366 65.5 70.9386 66.5208 71.5428 67.2031C72.147 67.8802 72.9386 68.2188 73.9178 68.2188C74.4022 68.2188 74.8866 68.125 75.3709 67.9375C75.8605 67.7448 76.2798 67.513 76.6287 67.2422V65.7891H73.9803ZM80.1994 66.2734L82.4494 66.0547C82.5848 66.8099 82.8582 67.3646 83.2697 67.7188C83.6864 68.0729 84.2463 68.25 84.9494 68.25C85.6942 68.25 86.2541 68.0938 86.6291 67.7812C87.0093 67.4635 87.1994 67.0938 87.1994 66.6719C87.1994 66.401 87.1186 66.1719 86.9572 65.9844C86.8009 65.7917 86.5249 65.625 86.1291 65.4844C85.8582 65.3906 85.241 65.224 84.2775 64.9844C83.0379 64.6771 82.1681 64.2995 81.6681 63.8516C80.965 63.2214 80.6134 62.4531 80.6134 61.5469C80.6134 60.9635 80.7775 60.4193 81.1056 59.9141C81.439 59.4036 81.9155 59.0156 82.5353 58.75C83.1603 58.4844 83.9129 58.3516 84.7931 58.3516C86.2306 58.3516 87.3114 58.6667 88.0353 59.2969C88.7645 59.9271 89.1473 60.7682 89.1838 61.8203L86.8713 61.9219C86.7723 61.3333 86.5588 60.9115 86.2306 60.6562C85.9077 60.3958 85.4207 60.2656 84.7697 60.2656C84.0978 60.2656 83.5718 60.4036 83.1916 60.6797C82.9468 60.8568 82.8244 61.0938 82.8244 61.3906C82.8244 61.6615 82.939 61.8932 83.1681 62.0859C83.4598 62.3307 84.1681 62.5859 85.2931 62.8516C86.4181 63.1172 87.2489 63.3932 87.7853 63.6797C88.327 63.9609 88.7489 64.349 89.0509 64.8438C89.3582 65.3333 89.5119 65.9401 89.5119 66.6641C89.5119 67.3203 89.3296 67.9349 88.965 68.5078C88.6004 69.0807 88.0848 69.5078 87.4181 69.7891C86.7515 70.0651 85.9207 70.2031 84.9259 70.2031C83.478 70.2031 82.366 69.8698 81.59 69.2031C80.814 68.5312 80.3504 67.5547 80.1994 66.2734ZM101.465 70H98.9497L97.9497 67.3984H93.3716L92.4263 70H89.9731L94.4341 58.5469H96.8794L101.465 70ZM97.2075 65.4688L95.6294 61.2188L94.0825 65.4688H97.2075ZM102.38 70V58.5469H106.091C107.497 58.5469 108.414 58.6042 108.841 58.7188C109.497 58.8906 110.046 59.2656 110.489 59.8438C110.932 60.4167 111.153 61.1589 111.153 62.0703C111.153 62.7734 111.026 63.3646 110.77 63.8438C110.515 64.3229 110.19 64.7005 109.794 64.9766C109.403 65.2474 109.005 65.4271 108.598 65.5156C108.046 65.625 107.247 65.6797 106.2 65.6797H104.692V70H102.38ZM104.692 60.4844V63.7344H105.958C106.869 63.7344 107.479 63.6745 107.786 63.5547C108.093 63.4349 108.333 63.2474 108.505 62.9922C108.682 62.737 108.77 62.4401 108.77 62.1016C108.77 61.6849 108.648 61.3411 108.403 61.0703C108.158 60.7995 107.848 60.6302 107.473 60.5625C107.197 60.5104 106.643 60.4844 105.809 60.4844H104.692Z" fill="#330812"/>
</svg>
